#!OML:ASF G:\JayActor3\Patient Classification 1\Patient 1\Session 6\male.ASF
:FULLY-SPECIFIED
:DEGREES
2088
root 8.17934 15.1346 -19.1962 190.818 -54.0239 -177.732
lowerback 35.9456 0.063897 2.24708
upperback 17.5948 -2.98297 -2.77479
thorax 1.10652 -2.53259 -3.21079
lowerneck 2.70292 -0.382865 3.29454
upperneck -36.534 -2.08187 2.29158
head -12.5884 -3.05941 0.845336
rclavicle -3.57812e-014 -4.17448e-014
rhumerus 29.4903 -10.2574 -15.6016
rradius 128.34
rwrist -48.8895
rhand -40.9003 -8.69604
rfingers 7.12502
rthumb -13.8355 -38.2159
lclavicle -3.57812e-014 -4.17448e-014
lhumerus -5.20644 -11.8321 63.0521
lradius 63.1932
lwrist 31.2692
lhand -18.8515 10.5129
lfingers 7.12502
lthumb 7.44851 40.3618
rfemur -52.772 -6.35324 22.8456
rtibia 64.0549
rfoot -23.7345 -17.2275
rtoes -6.37851
lfemur -53.0806 12.2973 -25.6823
ltibia 57.4824
lfoot -17.5423 8.70105
ltoes 1.37192
2089
root 8.17842 15.1341 -19.1961 190.791 -53.9766 -177.7
lowerback 35.9449 0.0866133 2.20762
upperback 17.5944 -2.96868 -2.76295
thorax 1.10889 -2.52986 -3.18215
lowerneck 2.67338 -0.409249 3.24978
upperneck -36.5538 -2.11629 2.36237
head -12.5897 -3.08233 0.885503
rclavicle -4.69132e-014 -5.04913e-014
rhumerus 29.4776 -10.2932 -15.5433
rradius 128.319
rwrist -48.7526
rhand -40.8836 -8.6571
rfingers 7.12502
rthumb -13.8195 -38.178
lclavicle -4.69132e-014 -5.04913e-014
lhumerus -5.21511 -11.791 63.063
lradius 63.1844
lwrist 31.2576
lhand -18.8436 10.5265
lfingers 7.12502
lthumb 7.45607 40.3751
rfemur -52.77 -6.30517 22.8567
rtibia 64.0546
rfoot -23.7318 -17.2132
rtoes -6.33768
lfemur -53.0872 12.3276 -25.6644
ltibia 57.5068
lfoot -17.5561 8.7229
ltoes 1.36016
2090
root 8.17756 15.1337 -19.1961 190.772 -53.9276 -177.674
lowerback 35.9455 0.108787 2.16396
upperback 17.5933 -2.95635 -2.75397
thorax 1.10966 -2.52819 -3.15361
lowerneck 2.63393 -0.439102 3.21592
upperneck -36.5841 -2.16173 2.42192
head -12.5938 -3.11192 0.921056
rclavicle 2.54444e-014 -6.36111e-014
rhumerus 29.4682 -10.3297 -15.4931
rradius 128.299
rwrist -48.6342
rhand -40.8472 -8.61222
rfingers 7.12502
rthumb -13.7843 -38.1356
lclavicle 2.54444e-014 -6.36111e-014
lhumerus -5.23276 -11.7494 63.0716
lradius 63.1901
lwrist 31.2416
lhand -18.8408 10.5364
lfingers 7.12502
lthumb 7.45885 40.3849
rfemur -52.771 -6.25171 22.863
rtibia 64.0522
rfoot -23.7291 -17.2038
rtoes -6.28935
lfemur -53.0949 12.3555 -25.6498
ltibia 57.5273
lfoot -17.5679 8.7491
ltoes 1.3382
2091
root 8.17658 15.1336 -19.196 190.758 -53.884 -177.652
lowerback 35.9465 0.124144 2.11554
upperback 17.592 -2.95369 -2.74204
thorax 1.10994 -2.53178 -3.11651
lowerneck 2.59069 -0.462901 3.18011
upperneck -36.6288 -2.20861 2.45981
head -12.6036 -3.14082 0.949399
rclavicle 6.36111e-015 -7.67309e-014
rhumerus 29.4808 -10.3724 -15.4547
rradius 128.279
rwrist -48.5528
rhand -40.8002 -8.58096
rfingers 7.12502
rthumb -13.7391 -38.1074
lclavicle 6.36111e-015 -7.67309e-014
lhumerus -5.26551 -11.6897 63.0882
lradius 63.2069
lwrist 31.2214
lhand -18.8354 10.5423
lfingers 7.12502
lthumb 7.46402 40.3906
rfemur -52.7727 -6.20121 22.866
rtibia 64.0474
rfoot -23.7249 -17.201
rtoes -6.27587
lfemur -53.1013 12.3745 -25.6372
ltibia 57.5426
lfoot -17.5776 8.77826
ltoes 1.30882
2092
root 8.17544 15.1337 -19.1956 190.75 -53.8502 -177.635
lowerback 35.9491 0.127953 2.05964
upperback 17.5886 -2.96669 -2.72336
thorax 1.10695 -2.54392 -3.06346
lowerneck 2.54776 -0.467871 3.12594
upperneck -36.6816 -2.23939 2.47157
head -12.6167 -3.15732 0.969426
rclavicle 4.53229e-014 -7.95139e-016
rhumerus 29.532 -10.4172 -15.4283
rradius 128.261
rwrist -48.5238
rhand -40.7606 -8.56011
rfingers 7.12502
rthumb -13.7009 -38.0891
lclavicle 4.53229e-014 -7.95139e-016
lhumerus -5.32449 -11.6008 63.1201
lradius 63.2331
lwrist 31.1976
lhand -18.835 10.5442
lfingers 7.12502
lthumb 7.46443 40.3925
rfemur -52.7739 -6.15713 22.8657
rtibia 64.0405
rfoot -23.7157 -17.209
rtoes -6.27485
lfemur -53.1053 12.3812 -25.6259
ltibia 57.5524
lfoot -17.587 8.80701
ltoes 1.29412
2093
root 8.17421 15.134 -19.195 190.745 -53.8251 -177.62
lowerback 35.9528 0.123179 1.99937
upperback 17.5844 -2.99105 -2.69847
thorax 1.10258 -2.56226 -2.99809
lowerneck 2.50032 -0.452347 3.05745
upperneck -36.7366 -2.25002 2.45796
head -12.6297 -3.15976 0.979886
rclavicle 5.48646e-014 2.34566e-014
rhumerus 29.6125 -10.47 -15.4115
rradius 128.243
rwrist -48.5434
rhand -40.7368 -8.54371
rfingers 7.12502
rthumb -13.6779 -38.0742
lclavicle 5.48646e-014 2.34566e-014
lhumerus -5.39932 -11.4919 63.1657
lradius 63.2622
lwrist 31.1774
lhand -18.8398 10.5381
lfingers 7.12502
lthumb 7.45975 40.3866
rfemur -52.7744 -6.11823 22.8628
rtibia 64.0316
rfoot -23.7099 -17.219
rtoes -6.27601
lfemur -53.1083 12.3794 -25.6163
ltibia 57.5575
lfoot -17.5937 8.83691
ltoes 1.27002
2094
root 8.17285 15.1344 -19.1941 190.74 -53.8123 -177.605
lowerback 35.9561 0.107855 1.94711
upperback 17.5798 -3.02536 -2.67203
thorax 1.09727 -2.58486 -2.93223
lowerneck 2.45664 -0.422011 2.9825
upperneck -36.795 -2.24325 2.42963
head -12.645 -3.15151 0.983999
rclavicle 7.95139e-014 -2.3059e-014
rhumerus 29.708 -10.5316 -15.4067
rradius 128.225
rwrist -48.5948
rhand -40.7327 -8.53389
rfingers 7.12502
rthumb -13.6741 -38.0647
lclavicle 7.95139e-014 -2.3059e-014
lhumerus -5.48113 -11.3786 63.2151
lradius 63.2897
lwrist 31.1637
lhand -18.8478 10.5274
lfingers 7.12502
lthumb 7.45207 40.3762
rfemur -52.7746 -6.08827 22.8606
rtibia 64.0211
rfoot -23.7044 -17.2309
rtoes -6.27305
lfemur -53.1122 12.3673 -25.6059
ltibia 57.5603
lfoot -17.6001 8.86438
ltoes 1.25728
2095
root 8.17158 15.1349 -19.193 190.736 -53.7989 -177.586
lowerback 35.9566 0.093027 1.89787
upperback 17.5747 -3.05784 -2.64629
thorax 1.09251 -2.60616 -2.86934
lowerneck 2.40266 -0.381998 2.90698
upperneck -36.8419 -2.22245 2.39617
head -12.6532 -3.1353 0.983906
rclavicle 6.36111e-015 3.18055e-014
rhumerus 29.8005 -10.5945 -15.4037
rradius 128.207
rwrist -48.6558
rhand -40.7291 -8.47513
rfingers 7.12502
rthumb -13.6706 -38.0062
lclavicle 6.36111e-015 3.18055e-014
lhumerus -5.55748 -11.2742 63.2634
lradius 63.3098
lwrist 31.1538
lhand -18.8508 10.5204
lfingers 7.12502
lthumb 7.44913 40.3692
rfemur -52.7781 -6.05631 22.8607
rtibia 64.0094
rfoot -23.6997 -17.2423
rtoes -6.25749
lfemur -53.1214 12.36 -25.5963
ltibia 57.5628
lfoot -17.6049 8.88948
ltoes 1.23886
2096
root 8.17038 15.1353 -19.192 190.729 -53.7845 -177.559
lowerback 35.9524 0.0813617 1.86661
upperback 17.5701 -3.08087 -2.62956
thorax 1.08938 -2.62077 -2.82837
lowerneck 2.34971 -0.34725 2.86031
upperneck -36.8833 -2.20292 2.36516
head -12.6597 -3.12318 0.979538
rclavicle -4.29375e-014 -9.54166e-015
rhumerus 29.8594 -10.6646 -15.4076
rradius 128.187
rwrist -48.6991
rhand -40.724 -8.38467
rfingers 7.12502
rthumb -13.6657 -37.916
lclavicle -4.29375e-014 -9.54166e-015
lhumerus -5.61402 -11.2065 63.2965
lradius 63.3202
lwrist 31.1486
lhand -18.855 10.516
lfingers 7.12502
lthumb 7.44507 40.365
rfemur -52.7854 -6.02115 22.8665
rtibia 63.9969
rfoot -23.6968 -17.2517
rtoes -6.24272
lfemur -53.1371 12.3593 -25.5838
ltibia 57.5665
lfoot -17.6076 8.90969
ltoes 1.21676
2097
root 8.16923 15.1356 -19.1908 190.72 -53.7722 -177.525
lowerback 35.9443 0.070439 1.85519
upperback 17.5656 -3.09667 -2.62169
thorax 1.08705 -2.62964 -2.80939
lowerneck 2.30239 -0.325679 2.83756
upperneck -36.9201 -2.19391 2.34718
head -12.6659 -3.12004 0.977035
rclavicle -1.43125e-014 -1.27222e-014
rhumerus 29.8862 -10.7393 -15.4162
rradius 128.166
rwrist -48.7087
rhand -40.7171 -8.2758
rfingers 7.12502
rthumb -13.6589 -37.8076
lclavicle -1.43125e-014 -1.27222e-014
lhumerus -5.64842 -11.1736 63.3147
lradius 63.3191
lwrist 31.1439
lhand -18.8448 10.5182
lfingers 7.12502
lthumb 7.45491 40.3668
rfemur -52.7959 -5.98992 22.8771
rtibia 63.9842
rfoot -23.6967 -17.2529
rtoes -6.21445
lfemur -53.1584 12.3612 -25.5698
ltibia 57.5718
lfoot -17.6101 8.92547
ltoes 1.19464
2098
root 8.16794 15.1359 -19.1895 190.71 -53.7615 -177.492
lowerback 35.9356 0.0620595 1.86477
upperback 17.5609 -3.10285 -2.62508
thorax 1.08395 -2.63141 -2.81609
lowerneck 2.27072 -0.322723 2.84902
upperneck -36.9578 -2.2021 2.34095
head -12.6762 -3.13021 0.975207
rclavicle 4.77083e-014 -5.40694e-014
rhumerus 29.8702 -10.8218 -15.429
rradius 128.145
rwrist -48.6708
rhand -40.7138 -8.15562
rfingers 7.12502
rthumb -13.6558 -37.6876
lclavicle 4.77083e-014 -5.40694e-014
lhumerus -5.65935 -11.1862 63.3188
lradius 63.3069
lwrist 31.138
lhand -18.8351 10.5203
lfingers 7.12502
lthumb 7.46427 40.3686
rfemur -52.8056 -5.96673 22.888
rtibia 63.9712
rfoot -23.6968 -17.245
rtoes -6.18441
lfemur -53.1788 12.3644 -25.5579
ltibia 57.5765
lfoot -17.6118 8.93889
ltoes 1.1682
2099
root 8.16653 15.1362 -19.1881 190.7 -53.754 -177.461
lowerback 35.9262 0.0537537 1.88672
upperback 17.5575 -3.10537 -2.63355
thorax 1.082 -2.63017 -2.83577
lowerneck 2.2469 -0.330232 2.87436
upperneck -36.9906 -2.21912 2.34422
head -12.6863 -3.14667 0.975462
rclavicle -2.70347e-014 1.74931e-014
rhumerus 29.8328 -10.9112 -15.4454
rradius 128.128
rwrist -48.5748
rhand -40.7153 -8.05065
rfingers 7.12502
rthumb -13.6572 -37.5826
lclavicle -2.70347e-014 1.74931e-014
lhumerus -5.6547 -11.222 63.319
lradius 63.2858
lwrist 31.1288
lhand -18.8186 10.5262
lfingers 7.12502
lthumb 7.48029 40.3739
rfemur -52.813 -5.95279 22.8979
rtibia 63.9584
rfoot -23.7022 -17.2218
rtoes -6.13722
lfemur -53.1966 12.3668 -25.5482
ltibia 57.5796
lfoot -17.6126 8.95051
ltoes 1.13785
